<svg class="svg-ico-new" width="24" height="24" xmlns="http://www.w3.org/2000/svg" viewBox="0 0 100 100"><path d="M80.2 58.1L100 50l-19.8-8.1L93.3 25l-21.2 2.9L75 6.7 58.1 19.8 50 0l-8.1 19.8L25 6.7l2.9 21.2L6.7 25l13.1 16.9L0 50l19.8 8.1L6.7 75l21.2-2.9L25 93.3l16.9-13.1L50 100l8.1-19.8L75 93.3l-2.9-21.2L93.3 75 80.2 58.1zM50 71.6C38 71.6 28.4 62 28.4 50c0-12 9.7-21.6 21.6-21.6 12 0 21.6 9.7 21.6 21.6S62 71.6 50 71.6zM50 32.3c-9.8 0-17.7 7.9-17.7 17.7 0 9.8 7.9 17.7 17.7 17.7 9.8 0 17.7-7.9 17.7-17.7C67.7 40.2 59.8 32.3 50 32.3z"></path></svg>