<svg class="svg-ico-login" width="24" height="24" xmlns="http://www.w3.org/2000/svg" viewBox="0 0 94 94"><path d="M43.7 63.9l4.4 4.4c1 1 2.3 1.6 3.7 1.5h5.2v4.4c0 3.3 2.7 6 6 6 0 0 0 0 0 0h4.4v5.2c0 1.4 0.5 2.7 1.5 3.7l3.5 3.5c0.9 0.9 2.2 1.4 3.5 1.4h13.8c2.4 0 4.3-1.9 4.3-4.3l0 0v-13.8c0-1.3-0.5-2.6-1.4-3.5l-28.7-28.7C69.9 26.6 60.9 7.9 43.7 1.9 31.8-2.3 18.6 0.7 9.6 9.6 -3.2 22.5-3.2 43.3 9.6 56.1 18.5 65 31.8 68 43.7 63.9zM13.9 13.9C24.4 3.4 41.4 3.4 51.8 13.8c7.7 7.7 10 19.4 5.7 29.5 -0.5 1.1-0.2 2.4 0.6 3.3l29.8 29.8v11.6h-11.6l-2.9-2.9v-7.1c0-2.1-1.7-3.9-3.9-3.9l0 0 0 0h-6.5v-6.5c0-2.1-1.7-3.9-3.9-3.9l0 0h-7.1l-5.6-5.6c-0.9-0.9-2.2-1.1-3.3-0.6 -13.7 5.8-29.4-0.6-35.2-14.3 -4.3-10.1-2-21.7 5.7-29.4L13.9 13.9zM26.4 37.4c6.1 0 11-4.9 11-11s-4.9-11-11-11 -11 4.9-11 11S20.4 37.4 26.4 37.4zM26.4 21.5c2.8 0 5 2.2 5 5s-2.2 5-5 5 -5-2.2-5-5c0-2.8 2.2-5 5-5 0 0 0 0 0 0V21.5z"></path></svg>