<svg class="svg-ico-like" width="24" height="24" xmlns="http://www.w3.org/2000/svg" viewBox="0 0 53 59.1"><path fill="#fff" d="M48.5 30.4h-3.1c2.5 0 4.5-2 4.5-4.5v-0.5c0-2.5-2-4.5-4.5-4.5h-8.2c13.2-16.2 1.5-24.1-1.2-19.7 -3.7 6.1-9.6 9.9-14.2 13.6 -6.1 4.9-10.4 8.7-10.4 8.7H4.1c-2.3 0-4.1 1.8-4.1 4.1v17.9c0 2.3 1.8 4.1 4.1 4.1h6.6c2 5.5 7.6 9.5 14.3 9.5l0 0h16.2c2.5 0 4.5-2 4.5-4.5v-0.5c0-2.5-2-4.5-4.5-4.5h4.2c2.5 0 4.5-2 4.5-4.5v-0.6c0-2.5-2-4.5-4.5-4.5h3.1c2.5 0 4.5-2 4.5-4.5v-0.5C53 32.4 51 30.4 48.5 30.4z"></path></svg>