<svg class="svg-ico-sale" width="24" height="24" xmlns="http://www.w3.org/2000/svg" viewBox="0 0 33.3 33.3"><path fill="#fff" d="M7.5 0C3.4 0 0 3.4 0 7.5 0 11.6 3.4 15 7.5 15c4.1 0 7.5-3.4 7.5-7.5C15 3.4 11.6 0 7.5 0zM7.5 10C6.1 10 5 8.9 5 7.5S6.1 5 7.5 5C8.9 5 10 6.1 10 7.5S8.9 10 7.5 10z"/><path fill="#fff" d="M25.8 18.3c-4.1 0-7.5 3.4-7.5 7.5 0 4.1 3.4 7.5 7.5 7.5s7.5-3.4 7.5-7.5C33.3 21.7 30 18.3 25.8 18.3zM25.8 28.3c-1.4 0-2.5-1.1-2.5-2.5 0-1.4 1.1-2.5 2.5-2.5s2.5 1.1 2.5 2.5C28.3 27.2 27.2 28.3 25.8 28.3z"/><rect fill="#fff" x="-4.4" y="14.2" transform="matrix(0.7071 -0.7071 0.7071 0.7071 -6.9032 16.667)" width="42.1" height="5"/></svg>